<svg width="9" height="9" viewBox="0 0 9 9" fill="none" xmlns="http://www.w3.org/2000/svg">
<g clip-path="url(#clip0_4691_698)">
<path d="M6.26 8.28798C6.07 8.28798 5.88 8.21465 5.73333 8.06798L2 4.28798L5.73333 0.507981C5.80188 0.438339 5.88361 0.383032 5.97374 0.34528C6.06387 0.307528 6.16061 0.288086 6.25833 0.288086C6.35605 0.288086 6.4528 0.307528 6.54293 0.34528C6.63306 0.383032 6.71478 0.438339 6.78333 0.507981C7.07333 0.801314 7.07333 1.27465 6.78333 1.56798L4.09667 4.28798L6.78333 7.00798C7.07333 7.30131 7.07333 7.77465 6.78333 8.06798C6.63667 8.21465 6.45 8.28798 6.26 8.28798Z" fill="#587052"/>
</g>
<defs>
<clipPath id="clip0_4691_698">
<rect width="8" height="8" fill="white" transform="translate(0.5 0.288086)"/>
</clipPath>
</defs>
</svg>
