<svg width="23" height="17" viewBox="0 0 23 17" fill="none" xmlns="http://www.w3.org/2000/svg">
<g clip-path="url(#clip0_10144_2396)">
<path d="M7.46803 0.614943C7.65385 0.422557 7.87612 0.269103 8.12187 0.163535C8.36762 0.0579674 8.63194 0.00240019 8.8994 7.60535e-05C9.16685 -0.00224808 9.4321 0.0487173 9.67965 0.149998C9.9272 0.251279 10.1521 0.400848 10.3412 0.589976C10.5304 0.779105 10.6799 1.00401 10.7812 1.25156C10.8825 1.49911 10.9335 1.76435 10.9311 2.03181C10.9288 2.29927 10.8732 2.56358 10.7677 2.80934C10.6621 3.05509 10.5086 3.27736 10.3163 3.46317L7.71176 6.06767H20.143C20.6773 6.06767 21.1896 6.27989 21.5674 6.65764C21.9451 7.0354 22.1574 7.54774 22.1574 8.08197C22.1574 8.6162 21.9451 9.12854 21.5674 9.5063C21.1896 9.88405 20.6773 10.0963 20.143 10.0963H7.71176L10.3163 12.7008C10.5086 12.8866 10.6621 13.1089 10.7677 13.3546C10.8732 13.6004 10.9288 13.8647 10.9311 14.1321C10.9335 14.3996 10.8825 14.6648 10.7812 14.9124C10.6799 15.1599 10.5304 15.3848 10.3412 15.574C10.1521 15.7631 9.9272 15.9127 9.67965 16.0139C9.4321 16.1152 9.16685 16.1662 8.8994 16.1639C8.63194 16.1615 8.36762 16.106 8.12187 16.0004C7.87612 15.8948 7.65385 15.7414 7.46803 15.549L0 8.08197L7.46803 0.614943Z" fill="#EA5A69"/>
</g>
<defs>
<clipPath id="clip0_10144_2396">
<rect width="22.8292" height="16.1639" fill="white"/>
</clipPath>
</defs>
</svg>
