<svg width="24" height="24" viewBox="0 0 24 24" fill="none" xmlns="http://www.w3.org/2000/svg">
<path d="M12 12C13.1867 12 14.3467 11.6481 15.3334 10.9888C16.3201 10.3295 17.0892 9.39246 17.5433 8.2961C17.9974 7.19975 18.1162 5.99335 17.8847 4.82946C17.6532 3.66558 17.0818 2.59648 16.2426 1.75736C15.4035 0.918247 14.3344 0.346802 13.1705 0.115291C12.0067 -0.11622 10.8003 0.00259972 9.7039 0.456726C8.60754 0.910851 7.67047 1.67989 7.01118 2.66658C6.35189 3.65328 6 4.81331 6 6C6 7.5913 6.63214 9.11742 7.75736 10.2426C8.88258 11.3679 10.4087 12 12 12ZM12 2C12.7911 2 13.5645 2.2346 14.2223 2.67412C14.8801 3.11365 15.3928 3.73836 15.6955 4.46927C15.9983 5.20017 16.0775 6.00444 15.9231 6.78036C15.7688 7.55629 15.3878 8.26902 14.8284 8.82843C14.269 9.38784 13.5563 9.7688 12.7804 9.92314C12.0044 10.0775 11.2002 9.99827 10.4693 9.69552C9.73836 9.39277 9.11365 8.88008 8.67412 8.22228C8.2346 7.56449 8 6.79113 8 6C8 4.93914 8.42143 3.92172 9.17157 3.17158C9.92172 2.42143 10.9391 2 12 2ZM18 12C16.8133 12 15.6533 12.3519 14.6666 13.0112C13.6799 13.6705 12.9108 14.6075 12.4567 15.7039C12.0026 16.8003 11.8838 18.0067 12.1153 19.1705C12.3468 20.3344 12.9182 21.4035 13.7574 22.2426C14.5965 23.0818 15.6656 23.6532 16.8295 23.8847C17.9933 24.1162 19.1997 23.9974 20.2961 23.5433C21.3925 23.0892 22.3295 22.3201 22.9888 21.3334C23.6481 20.3467 24 19.1867 24 18C24 16.4087 23.3679 14.8826 22.2426 13.7574C21.1174 12.6321 19.5913 12 18 12ZM22 18C21.9897 18.7053 21.793 19.3953 21.43 20L16 14.57C16.6056 14.2203 17.2922 14.0355 17.9915 14.034C18.6908 14.0325 19.3782 14.2144 19.9853 14.5614C20.5924 14.9085 21.0979 15.4086 21.4514 16.0119C21.8049 16.6153 21.9941 17.3008 22 18ZM14 18C14.0103 17.2947 14.207 16.6048 14.57 16L20 21.43C19.3944 21.7797 18.7078 21.9645 18.0085 21.966C17.3092 21.9675 16.6218 21.7856 16.0147 21.4386C15.4076 21.0916 14.9021 20.5914 14.5486 19.9881C14.1951 19.3847 14.0059 18.6993 14 18ZM12 23C12 23.2652 11.8946 23.5196 11.7071 23.7071C11.5196 23.8946 11.2652 24 11 24H3C2.20435 24 1.44129 23.6839 0.87868 23.1213C0.31607 22.5587 0 21.7957 0 21C0 19.1435 0.737498 17.363 2.05025 16.0503C3.36301 14.7375 5.14348 14 7 14H10C10.2652 14 10.5196 14.1054 10.7071 14.2929C10.8946 14.4804 11 14.7348 11 15C11 15.2652 10.8946 15.5196 10.7071 15.7071C10.5196 15.8946 10.2652 16 10 16H7C5.67392 16 4.40215 16.5268 3.46447 17.4645C2.52678 18.4021 2 19.6739 2 21C2 21.2652 2.10536 21.5196 2.29289 21.7071C2.48043 21.8946 2.73478 22 3 22H11C11.2652 22 11.5196 22.1054 11.7071 22.2929C11.8946 22.4804 12 22.7348 12 23Z" fill="#191919"/>
</svg>
