<svg width="91" height="91" viewBox="0 0 91 91" fill="none" xmlns="http://www.w3.org/2000/svg">
    <g clip-path="url(#clip0_8882_1806)">
    <path d="M40.04 34.985L43.34 30.5H53.66L56.96 34.985H61.595C64.295 34.985 66.5 37.22 66.5 39.98V55.505C66.5 58.265 64.295 60.5 61.595 60.5H35.405C32.705 60.5 30.5 58.265 30.5 55.505V39.98C30.5 37.22 32.705 34.985 35.405 34.985H40.04ZM48.5 38.33C47.3693 38.33 46.2497 38.5527 45.2051 38.9854C44.1605 39.4181 43.2113 40.0523 42.4118 40.8518C41.6123 41.6513 40.9781 42.6005 40.5454 43.6451C40.1127 44.6897 39.89 45.8093 39.89 46.94C39.89 48.0707 40.1127 49.1903 40.5454 50.2349C40.9781 51.2795 41.6123 52.2287 42.4118 53.0282C43.2113 53.8277 44.1605 54.4619 45.2051 54.8946C46.2497 55.3273 47.3693 55.55 48.5 55.55C50.7835 55.55 52.9735 54.6429 54.5882 53.0282C56.2029 51.4135 57.11 49.2235 57.11 46.94C57.11 44.6565 56.2029 42.4665 54.5882 40.8518C52.9735 39.2371 50.7835 38.33 48.5 38.33ZM48.5 42.425C50.99 42.425 53.015 44.45 53.015 46.94C53.015 49.43 50.99 51.455 48.5 51.455C46.01 51.455 43.985 49.43 43.985 46.94C43.985 44.45 46.01 42.425 48.5 42.425Z" fill="#F7901E"/>
    </g>
    <rect x="31" y="28" width="35" height="35" stroke="#F7901E"/>
    <g clip-path="url(#clip1_8882_1806)">
    <path d="M32.3333 33.3333H29.3333V36.3333C29.3333 36.5543 29.2455 36.7663 29.0893 36.9226C28.933 37.0789 28.721 37.1667 28.5 37.1667C28.279 37.1667 28.067 37.0789 27.9107 36.9226C27.7545 36.7663 27.6667 36.5543 27.6667 36.3333V33.3333H24.6667C24.4457 33.3333 24.2337 33.2455 24.0774 33.0893C23.9211 32.933 23.8333 32.721 23.8333 32.5C23.8333 32.279 23.9211 32.067 24.0774 31.9107C24.2337 31.7545 24.4457 31.6667 24.6667 31.6667H27.6667V28.6667C27.6667 28.4457 27.7545 28.2337 27.9107 28.0774C28.067 27.9211 28.279 27.8333 28.5 27.8333C28.721 27.8333 28.933 27.9211 29.0893 28.0774C29.2455 28.2337 29.3333 28.4457 29.3333 28.6667V31.6667H32.3333C32.5543 31.6667 32.7663 31.7545 32.9226 31.9107C33.0789 32.067 33.1667 32.279 33.1667 32.5C33.1667 32.721 33.0789 32.933 32.9226 33.0893C32.7663 33.2455 32.5543 33.3333 32.3333 33.3333ZM28.5 24.5C24.08 24.5 20.5 28.08 20.5 32.5C20.5 36.92 24.08 40.5 28.5 40.5C32.92 40.5 36.5 36.92 36.5 32.5C36.5 28.08 32.92 24.5 28.5 24.5Z" fill="#F7901E"/>
    </g>
    <rect x="21" y="25" width="15" height="15" stroke="#F7901E"/>
    <rect x="1.5" y="1.5" width="88" height="88" rx="44" stroke="#F7901E" stroke-width="2"/>
    <defs>
    <clipPath id="clip0_8882_1806">
    <rect x="30.5" y="27.5" width="36" height="36" fill="white"/>
    </clipPath>
    <clipPath id="clip1_8882_1806">
    <rect x="20.5" y="24.5" width="16" height="16" fill="white"/>
    </clipPath>
    </defs>
    </svg>
    