<svg width="111" height="90" viewBox="0 0 111 90" fill="none" xmlns="http://www.w3.org/2000/svg">
<g clip-path="url(#clip0_8882_2521)">
<path d="M50.04 34.485L53.34 30H63.66L66.96 34.485H71.595C74.295 34.485 76.5 36.72 76.5 39.48V55.005C76.5 57.765 74.295 60 71.595 60H45.405C42.705 60 40.5 57.765 40.5 55.005V39.48C40.5 36.72 42.705 34.485 45.405 34.485H50.04ZM58.5 37.83C57.3693 37.83 56.2497 38.0527 55.2051 38.4854C54.1605 38.9181 53.2113 39.5523 52.4118 40.3518C51.6123 41.1513 50.9781 42.1005 50.5454 43.1451C50.1127 44.1897 49.89 45.3093 49.89 46.44C49.89 47.5707 50.1127 48.6903 50.5454 49.7349C50.9781 50.7795 51.6123 51.7287 52.4118 52.5282C53.2113 53.3277 54.1605 53.9619 55.2051 54.3946C56.2497 54.8273 57.3693 55.05 58.5 55.05C60.7835 55.05 62.9735 54.1429 64.5882 52.5282C66.2029 50.9135 67.11 48.7235 67.11 46.44C67.11 44.1565 66.2029 41.9665 64.5882 40.3518C62.9735 38.7371 60.7835 37.83 58.5 37.83ZM58.5 41.925C60.99 41.925 63.015 43.95 63.015 46.44C63.015 48.93 60.99 50.955 58.5 50.955C56.01 50.955 53.985 48.93 53.985 46.44C53.985 43.95 56.01 41.925 58.5 41.925Z" fill="#F7901E"/>
</g>
<rect x="41" y="27.5" width="35" height="35" stroke="#F7901E"/>
<g clip-path="url(#clip1_8882_2521)">
<path d="M42.3333 32.8333H39.3333V35.8333C39.3333 36.0543 39.2455 36.2663 39.0893 36.4226C38.933 36.5789 38.721 36.6667 38.5 36.6667C38.279 36.6667 38.067 36.5789 37.9107 36.4226C37.7545 36.2663 37.6667 36.0543 37.6667 35.8333V32.8333H34.6667C34.4457 32.8333 34.2337 32.7455 34.0774 32.5893C33.9211 32.433 33.8333 32.221 33.8333 32C33.8333 31.779 33.9211 31.567 34.0774 31.4107C34.2337 31.2545 34.4457 31.1667 34.6667 31.1667H37.6667V28.1667C37.6667 27.9457 37.7545 27.7337 37.9107 27.5774C38.067 27.4211 38.279 27.3333 38.5 27.3333C38.721 27.3333 38.933 27.4211 39.0893 27.5774C39.2455 27.7337 39.3333 27.9457 39.3333 28.1667V31.1667H42.3333C42.5543 31.1667 42.7663 31.2545 42.9226 31.4107C43.0789 31.567 43.1667 31.779 43.1667 32C43.1667 32.221 43.0789 32.433 42.9226 32.5893C42.7663 32.7455 42.5543 32.8333 42.3333 32.8333ZM38.5 24C34.08 24 30.5 27.58 30.5 32C30.5 36.42 34.08 40 38.5 40C42.92 40 46.5 36.42 46.5 32C46.5 27.58 42.92 24 38.5 24Z" fill="#F7901E"/>
</g>
<rect x="31" y="24.5" width="15" height="15" stroke="#F7901E"/>
<rect x="11.5" y="1" width="88" height="88" rx="44" stroke="#F7901E" stroke-width="2"/>
<defs>
<clipPath id="clip0_8882_2521">
<rect x="40.5" y="27" width="36" height="36" fill="white"/>
</clipPath>
<clipPath id="clip1_8882_2521">
<rect x="30.5" y="24" width="16" height="16" fill="white"/>
</clipPath>
</defs>
</svg>
