<svg width="22" height="24" viewBox="0 0 22 24" fill="none" xmlns="http://www.w3.org/2000/svg">
<path d="M12.5 12C13.6867 12 14.8467 11.6481 15.8334 10.9888C16.8201 10.3295 17.5892 9.39246 18.0433 8.2961C18.4974 7.19975 18.6162 5.99335 18.3847 4.82946C18.1532 3.66558 17.5818 2.59648 16.7426 1.75736C15.9035 0.918247 14.8344 0.346802 13.6705 0.115291C12.5067 -0.11622 11.3003 0.00259972 10.2039 0.456726C9.10754 0.910851 8.17047 1.67989 7.51118 2.66658C6.85189 3.65328 6.5 4.81331 6.5 6C6.5 7.5913 7.13214 9.11742 8.25736 10.2426C9.38258 11.3679 10.9087 12 12.5 12ZM12.5 2C13.2911 2 14.0645 2.2346 14.7223 2.67412C15.3801 3.11365 15.8928 3.73836 16.1955 4.46927C16.4983 5.20017 16.5775 6.00444 16.4231 6.78036C16.2688 7.55629 15.8878 8.26902 15.3284 8.82843C14.769 9.38784 14.0563 9.7688 13.2804 9.92314C12.5044 10.0775 11.7002 9.99827 10.9693 9.69552C10.2384 9.39277 9.61365 8.88008 9.17412 8.22228C8.7346 7.56449 8.5 6.79113 8.5 6C8.5 4.93914 8.92143 3.92172 9.67157 3.17158C10.4217 2.42143 11.4391 2 12.5 2ZM12.5 23C12.5 23.2652 12.3946 23.5196 12.2071 23.7071C12.0196 23.8946 11.7652 24 11.5 24H3.5C2.70435 24 1.94129 23.6839 1.37868 23.1213C0.81607 22.5587 0.5 21.7957 0.5 21C0.5 19.1435 1.2375 17.363 2.55025 16.0503C3.86301 14.7375 5.64348 14 7.5 14H10.5C10.7652 14 11.0196 14.1054 11.2071 14.2929C11.3946 14.4804 11.5 14.7348 11.5 15C11.5 15.2652 11.3946 15.5196 11.2071 15.7071C11.0196 15.8946 10.7652 16 10.5 16H7.5C6.17392 16 4.90215 16.5268 3.96447 17.4645C3.02678 18.4021 2.5 19.6739 2.5 21C2.5 21.2652 2.60536 21.5196 2.79289 21.7071C2.98043 21.8946 3.23478 22 3.5 22H11.5C11.7652 22 12.0196 22.1054 12.2071 22.2929C12.3946 22.4804 12.5 22.7348 12.5 23Z" fill="#191919"/>
<path d="M18.5 17.4645V19.4645H21C21 19.4645 22 19.4645 22 18.4645C22 17.4645 21 17.4645 21 17.4645H18.5Z" fill="#191919"/>
<path d="M16.5 19.4645V18.5V17.4645L14 17.5C14 17.5 13 17.5 13 18.5C13 19.5 14 19.5 14 19.5L16.5 19.4645Z" fill="#191919"/>
<path d="M18.5 19.4645V17.4645H17.5H16.5V18.5V19.4645H17.5H18.5Z" fill="#191919"/>
</svg>
