<svg width="30" height="25" viewBox="0 -2 25 25" fill="none" xmlns="http://www.w3.org/2000/svg">
    <circle cx="9" cy="9" r="10" transform="matrix(1 0 0 -1 8.5 20)" stroke="#EA5A69"
        stroke-width="2" />
    <path
        d="M10.2065 17.7929L8.905 16.4914L8.52135 18.2916L9.49939 18.5L8.52133 18.2916L8.5213 18.2918L8.52116 18.2925L8.52063 18.2949L8.51859 18.3045L8.51073 18.3415L8.48108 18.4815C8.45562 18.6021 8.41936 18.7743 8.37614 18.9812C8.28975 19.3949 8.17529 19.9486 8.06341 20.5069C7.95185 21.0636 7.84151 21.6315 7.76413 22.0711C7.72579 22.289 7.6934 22.4873 7.67326 22.6411C7.66355 22.7152 7.65407 22.7983 7.64993 22.8754C7.648 22.9116 7.6457 22.9719 7.65013 23.0405C7.65232 23.0744 7.65744 23.1326 7.67242 23.202C7.68336 23.2527 7.71885 23.4078 7.83218 23.5708C8.01052 23.8274 8.25214 23.929 8.39373 23.9681C8.53338 24.0067 8.65048 24.0068 8.71071 24.0044C8.83234 23.9997 8.93039 23.9745 8.97178 23.9633C9.06825 23.9372 9.16119 23.9006 9.22729 23.8731C9.37084 23.8134 9.54949 23.7282 9.7366 23.635C10.1173 23.4453 10.6077 23.1847 11.0854 22.9257C11.5654 22.6654 12.0417 22.4017 12.3974 22.2035C12.5754 22.1042 12.7236 22.0212 12.8274 21.9629L12.948 21.895L12.98 21.877L12.9883 21.8723L12.9905 21.8711L12.9911 21.8708L12.9912 21.8707L12.4994 21L12.9913 21.8706L14.4077 21.0704L13.0541 20.1679L11.6365 19.2229L10.2065 17.7929Z"
        stroke="#EA5A69" stroke-width="2" />
    <path
        d="M9.93081 33.9654C10.2508 34.7494 10.4628 35.5694 10.5668 36.4254C10.6708 37.2814 10.7228 38.2134 10.7228 39.2214V39.7254L10.6988 42.0054H9.57081L9.59481 39.7254V39.2574C9.59481 38.3054 9.54681 37.4454 9.45081 36.6774C9.36281 35.9014 9.17081 35.1574 8.87481 34.4454L9.93081 33.9654ZM12.9657 33.9654C13.1977 34.5174 13.3777 35.1374 13.5057 35.8254C13.5697 36.1934 13.6857 36.4454 13.8537 36.5814C14.0297 36.7094 14.2617 36.7734 14.5497 36.7734C14.7737 36.7734 14.9577 36.7054 15.1017 36.5694C15.2537 36.4334 15.3297 36.2294 15.3297 35.9574C15.3297 35.8694 15.3257 35.8014 15.3177 35.7534L15.1257 34.4454L16.2537 34.2654L16.4457 35.5974L16.4577 35.7174C16.5217 36.1254 16.6177 36.4054 16.7457 36.5574C16.8737 36.7014 17.0497 36.7734 17.2737 36.7734C17.5057 36.7734 17.6777 36.7174 17.7897 36.6054C17.9097 36.4934 17.9697 36.3094 17.9697 36.0534C17.9697 35.9974 17.9617 35.8974 17.9457 35.7534L17.7537 34.2534L18.8817 34.0974L19.0737 35.5974C19.0897 35.7894 19.0977 35.9294 19.0977 36.0174C19.0977 36.4494 19.0137 36.8214 18.8457 37.1334C18.6857 37.4454 18.4657 37.6814 18.1857 37.8414C17.9137 37.9934 17.6137 38.0694 17.2857 38.0694C16.7417 38.0694 16.3057 37.8414 15.9777 37.3854C15.7937 37.6014 15.5777 37.7694 15.3297 37.8894C15.0817 38.0094 14.8297 38.0694 14.5737 38.0694C14.2617 38.0694 13.9817 38.0054 13.7337 37.8774C13.7497 38.3174 13.7577 38.9334 13.7577 39.7254L13.7337 42.0054H12.6057L12.6297 39.7254V39.2574C12.6297 38.3054 12.5817 37.4454 12.4857 36.6774C12.3977 35.9014 12.2057 35.1574 11.9097 34.4454L12.9657 33.9654ZM23.549 34.0134C24.005 35.6694 24.349 36.8654 24.581 37.6014C24.813 38.3294 25.033 38.9294 25.241 39.4014C25.457 39.8734 25.797 40.5414 26.261 41.4054L25.277 42.0294C24.869 41.2694 24.561 40.6654 24.353 40.2174C24.145 39.7694 23.949 39.2654 23.765 38.7054C23.581 38.1374 23.337 37.3134 23.033 36.2334C22.777 37.2174 22.557 37.9974 22.373 38.5734C22.189 39.1414 22.005 39.6254 21.821 40.0254C21.637 40.4174 21.369 40.9574 21.017 41.6454L20.825 42.0174L19.817 41.3934L19.997 41.0574C20.437 40.2254 20.757 39.5854 20.957 39.1374C21.165 38.6814 21.377 38.0894 21.593 37.3614C21.817 36.6254 22.117 35.5094 22.493 34.0134H23.549Z"
        fill="#EA5A69" />
</svg>
        