<svg width="25" height="24" viewBox="0 0 25 24" fill="none" xmlns="http://www.w3.org/2000/svg">
<path d="M20 10.5C20 5.52944 15.9705 1.5 11 1.5C6.02944 1.5 2 5.52944 2 10.5C2 15.4705 6.02944 19.5 11 19.5C11.1277 19.5 11.2549 19.4973 11.3813 19.4921C11.214 19.0169 11.0984 18.5172 11.0412 17.9998L11 18C6.85787 18 3.5 14.6421 3.5 10.5C3.5 6.35787 6.85787 3 11 3C15.1421 3 18.5 6.35787 18.5 10.5L18.4998 10.5412C19.0172 10.5984 19.5169 10.714 19.9921 10.8813C19.9973 10.7549 20 10.6277 20 10.5Z" fill="#191919"/>
<path d="M11.168 15.7473C11.2935 15.1953 11.4867 14.6689 11.7384 14.1775C11.4997 14.2251 11.2529 14.25 11.0002 14.25C9.88961 14.25 8.89258 13.7682 8.20486 12.9998C7.9286 12.6912 7.45447 12.6649 7.14581 12.9412C6.83717 13.2174 6.81091 13.6915 7.08715 14.0002C8.04739 15.0731 9.44522 15.75 11.0002 15.75C11.0563 15.75 11.1123 15.7491 11.168 15.7473Z" fill="#191919"/>
<path d="M9.5 9C9.5 9.62132 8.99632 10.125 8.375 10.125C7.75368 10.125 7.25 9.62132 7.25 9C7.25 8.37868 7.75368 7.875 8.375 7.875C8.99632 7.875 9.5 8.37868 9.5 9Z" fill="#191919"/>
<path d="M13.625 10.125C14.2463 10.125 14.75 9.62132 14.75 9C14.75 8.37868 14.2463 7.875 13.625 7.875C13.0037 7.875 12.5 8.37868 12.5 9C12.5 9.62132 13.0037 10.125 13.625 10.125Z" fill="#191919"/>
<path d="M23 17.25C23 20.1495 20.6495 22.5 17.75 22.5C14.8505 22.5 12.5 20.1495 12.5 17.25C12.5 14.3505 14.8505 12 17.75 12C20.6495 12 23 14.3505 23 17.25ZM18.5 14.25C18.5 13.8358 18.1642 13.5 17.75 13.5C17.3358 13.5 17 13.8358 17 14.25V16.5H14.75C14.3358 16.5 14 16.8358 14 17.25C14 17.6642 14.3358 18 14.75 18H17V20.25C17 20.6642 17.3358 21 17.75 21C18.1642 21 18.5 20.6642 18.5 20.25V18H20.75C21.1642 18 21.5 17.6642 21.5 17.25C21.5 16.8358 21.1642 16.5 20.75 16.5H18.5V14.25Z" fill="#191919"/>
</svg>
