<svg width="17" height="17" viewBox="0 0 17 17" fill="none" xmlns="http://www.w3.org/2000/svg">
<g clip-path="url(#clip0_8882_722)">
<path d="M3.16725 3.66052C3.01391 3.65987 2.86286 3.69769 2.72792 3.77053L2.39957 3.94776L3.16667 3.91052M3.16725 3.66052C3.16747 3.66052 3.16769 3.66052 3.16792 3.66053L3.16667 3.91052M3.16725 3.66052H3.16667V3.91052M3.16725 3.66052H13.8328M3.16667 3.91052H13.8333M13.8328 3.66052C13.8325 3.66052 13.8323 3.66052 13.8321 3.66053L13.8333 3.91052M13.8328 3.66052C13.9861 3.65987 14.1371 3.69769 14.2721 3.77053L14.6004 3.94776L14.3116 4.18402L9.29167 8.29066C9.29165 8.29067 9.29164 8.29068 9.29163 8.29069C9.06829 8.47345 8.78859 8.57331 8.5 8.57331C8.21141 8.57331 7.93171 8.47345 7.70837 8.29069C7.70836 8.29068 7.70835 8.29067 7.70833 8.29066L7.86667 8.09719L13.8333 3.91052M13.8328 3.66052H13.8333V3.91052M2.84667 3.99052L3.00496 3.79702L3.14404 3.91079C3.04016 3.9138 2.9383 3.94106 2.84667 3.99052ZM2.84667 3.99052L2.96542 4.21052C2.99786 4.193 3.03236 4.17994 3.06798 4.17157L2.84667 3.99052ZM14.1533 3.99052L13.932 4.17157C13.9676 4.17994 14.0021 4.193 14.0346 4.21052L14.1533 3.99052ZM14.1533 3.99052L13.995 3.79702L13.856 3.91079C13.9598 3.9138 14.0617 3.94106 14.1533 3.99052ZM2.25 5.76242L2.65846 6.09716L6.75833 9.45705L2.25 5.76242ZM2.25 5.76242V6.29052M2.25 5.76242V6.29052M2.25 6.29052V12.5772C2.25 12.8203 2.34658 13.0535 2.51849 13.2254C2.69039 13.3973 2.92355 13.4939 3.16667 13.4939H13.8333C14.0764 13.4939 14.3096 13.3973 14.4815 13.2254C14.6534 13.0535 14.75 12.8203 14.75 12.5772V6.29052V5.76242M2.25 6.29052L14.75 5.76242M14.75 5.76242L14.3415 6.09716M14.75 5.76242L14.3415 6.09716M14.3415 6.09716L10.2417 9.45705M14.3415 6.09716L10.2417 9.45705M10.2417 9.45705C9.75031 9.85918 9.13493 10.0789 8.5 10.0789M10.2417 9.45705L8.5 10.0789M8.5 10.0789C7.86512 10.0789 7.2498 9.85922 6.75846 9.45716L8.5 10.0789ZM0.75 4.57719C0.75 3.93625 1.00461 3.32156 1.45783 2.86835C1.91104 2.41513 2.52573 2.16052 3.16667 2.16052H13.8333C14.4743 2.16052 15.089 2.41513 15.5422 2.86835C15.9954 3.32156 16.25 3.93625 16.25 4.57719V12.5772C16.25 13.2181 15.9954 13.8328 15.5422 14.286C15.089 14.7392 14.4743 14.9939 13.8333 14.9939H3.16667C2.52573 14.9939 1.91104 14.7392 1.45783 14.286C1.00461 13.8328 0.75 13.2181 0.75 12.5772V4.57719Z" fill="#A5A5A5" stroke="white" stroke-width="0.5"/>
</g>
<defs>
<clipPath id="clip0_8882_722">
<rect width="16" height="16" fill="white" transform="translate(0.5 0.577148)"/>
</clipPath>
</defs>
</svg>
