<svg width="17" height="17" viewBox="0 0 17 17" fill="none" xmlns="http://www.w3.org/2000/svg">
<g clip-path="url(#clip0_8882_691)">
<path d="M16.2334 12.6219L10.2534 1.97522C10.0799 1.66423 9.82656 1.40519 9.5195 1.22486C9.21244 1.04454 8.8628 0.949463 8.50671 0.949463C8.15061 0.949463 7.80097 1.04454 7.49391 1.22486C7.18685 1.40519 6.9335 1.66423 6.76004 1.97522L0.766706 12.6219C0.595338 12.9267 0.506292 13.2708 0.508335 13.6204C0.510378 13.9701 0.60344 14.3131 0.778359 14.6159C0.953278 14.9186 1.20402 15.1706 1.50591 15.347C1.8078 15.5234 2.15042 15.6181 2.50004 15.6219H14.5C16.0267 15.6219 16.9934 13.9619 16.2334 12.6219ZM11.2067 11.9152C11.394 12.1027 11.4992 12.3569 11.4992 12.6219C11.4992 12.8869 11.394 13.141 11.2067 13.3286C11.0192 13.5158 10.765 13.621 10.5 13.621C10.235 13.621 9.98087 13.5158 9.79337 13.3286L8.49337 12.0352L7.20004 13.3286C7.01254 13.5158 6.75837 13.621 6.49337 13.621C6.22837 13.621 5.97421 13.5158 5.78671 13.3286C5.59944 13.141 5.49425 12.8869 5.49425 12.6219C5.49425 12.3569 5.59944 12.1027 5.78671 11.9152L7.08004 10.6219L5.78671 9.32855C5.59944 9.14105 5.49425 8.88688 5.49425 8.62188C5.49425 8.35688 5.59944 8.10272 5.78671 7.91522C5.97421 7.72795 6.22837 7.62276 6.49337 7.62276C6.75837 7.62276 7.01254 7.72795 7.20004 7.91522L8.50004 9.20855L9.80004 7.91522C9.98754 7.72795 10.2417 7.62276 10.5067 7.62276C10.7717 7.62276 11.0259 7.72795 11.2134 7.91522C11.4006 8.10272 11.5058 8.35688 11.5058 8.62188C11.5058 8.88688 11.4006 9.14105 11.2134 9.32855L9.92004 10.6219L11.2134 11.9152H11.2067Z" fill="#CC0000"/>
</g>
<defs>
<clipPath id="clip0_8882_691">
<rect width="16" height="16" fill="white" transform="translate(0.5 0.288574)"/>
</clipPath>
</defs>
</svg>
