<svg width="48" height="48" viewBox="0 0 48 48" fill="none" xmlns="http://www.w3.org/2000/svg">
<g clip-path="url(#clip0_11021_3203)">
<path d="M6.14326 31.1668C6.13861 30.8994 6.18727 30.6337 6.2864 30.3853C6.38553 30.1369 6.53313 29.9107 6.72061 29.7199C6.90809 29.5292 7.13168 29.3776 7.37834 29.2742C7.625 29.1708 7.88979 29.1175 8.15726 29.1175C8.42473 29.1175 8.68952 29.1708 8.93618 29.2742C9.18284 29.3776 9.40644 29.5292 9.59392 29.7199C9.78139 29.9107 9.929 30.1369 10.0281 30.3853C10.1273 30.6337 10.1759 30.8994 10.1713 31.1668L10.1713 34.8501L18.9615 26.0599C19.3393 25.6821 19.8516 25.4699 20.3858 25.4699C20.9201 25.4699 21.4324 25.6821 21.8102 26.0599C22.1879 26.4377 22.4001 26.95 22.4001 27.4842C22.4001 28.0185 22.1879 28.5308 21.8102 28.9086L13.0199 37.6988L16.7032 37.6988C16.9707 37.6942 17.2363 37.7428 17.4848 37.8419C17.7332 37.9411 17.9594 38.0887 18.1501 38.2761C18.3409 38.4636 18.4924 38.6872 18.5958 38.9339C18.6993 39.1805 18.7525 39.4453 18.7525 39.7128C18.7525 39.9803 18.6993 40.2451 18.5958 40.4917C18.4924 40.7384 18.3409 40.962 18.1501 41.1495C17.9594 41.3369 17.7332 41.4845 17.4848 41.5837C17.2363 41.6828 16.9707 41.7314 16.7032 41.7268L6.14255 41.7275L6.14326 31.1668Z" fill="#EA5A69"/>
</g>
<g clip-path="url(#clip1_11021_3203)">
<path d="M31.7244 41.7269C31.457 41.7315 31.1913 41.6828 30.9429 41.5837C30.6945 41.4846 30.4683 41.337 30.2775 41.1495C30.0868 40.962 29.9353 40.7384 29.8318 40.4918C29.7284 40.2451 29.6751 39.9803 29.6751 39.7129C29.6751 39.4454 29.7284 39.1806 29.8318 38.9339C29.9353 38.6873 30.0868 38.4637 30.2775 38.2762C30.4683 38.0887 30.6945 37.9411 30.9429 37.842C31.1913 37.7429 31.457 37.6942 31.7244 37.6989L35.4078 37.6989L26.6175 28.9086C26.2398 28.5309 26.0275 28.0185 26.0275 27.4843C26.0275 26.9501 26.2398 26.4377 26.6175 26.06C26.9953 25.6822 27.5076 25.47 28.0418 25.47C28.5761 25.47 29.0884 25.6822 29.4662 26.06L38.2564 34.8502L38.2564 31.1669C38.2518 30.8995 38.3004 30.6338 38.3996 30.3854C38.4987 30.1369 38.6463 29.9107 38.8338 29.72C39.0212 29.5292 39.2448 29.3777 39.4915 29.2743C39.7382 29.1708 40.0029 29.1176 40.2704 29.1176C40.5379 29.1176 40.8027 29.1708 41.0493 29.2743C41.296 29.3777 41.5196 29.5292 41.7071 29.72C41.8945 29.9107 42.0422 30.1369 42.1413 30.3854C42.2404 30.6338 42.2891 30.8995 42.2844 31.1669L42.2851 41.7276L31.7244 41.7269Z" fill="#EA5A69"/>
</g>
<path d="M41.8099 17.1457C41.8145 17.4131 41.7659 17.6788 41.6667 17.9272C41.5676 18.1756 41.42 18.4018 41.2325 18.5926C41.045 18.7833 40.8214 18.9349 40.5748 19.0383C40.3281 19.1417 40.0633 19.195 39.7959 19.195C39.5284 19.195 39.2636 19.1417 39.0169 19.0383C38.7703 18.9349 38.5467 18.7833 38.3592 18.5926C38.1717 18.4018 38.0241 18.1756 37.925 17.9272C37.8259 17.6788 37.7772 17.4131 37.7819 17.1457L37.7819 13.4624L28.9916 22.2526C28.6139 22.6304 28.1015 22.8426 27.5673 22.8426C27.0331 22.8426 26.5207 22.6304 26.143 22.2526C25.7652 21.8748 25.553 21.3625 25.553 20.8283C25.553 20.294 25.7652 19.7817 26.143 19.4039L34.9332 10.6137L31.2499 10.6137C30.9825 10.6183 30.7168 10.5697 30.4684 10.4706C30.2199 10.3714 29.9938 10.2238 29.803 10.0364C29.6122 9.84887 29.4607 9.62528 29.3573 9.37862C29.2539 9.13196 29.2006 8.86717 29.2006 8.5997C29.2006 8.33223 29.2539 8.06744 29.3573 7.82078C29.4607 7.57412 29.6122 7.35053 29.803 7.16305C29.9938 6.97557 30.2199 6.82796 30.4684 6.72884C30.7168 6.62971 30.9825 6.58105 31.2499 6.5857L41.8106 6.58499L41.8099 17.1457Z" fill="#EA5A69"/>
<path d="M16.7033 6.58565C16.9707 6.581 17.2364 6.62966 17.4848 6.72878C17.7332 6.82791 17.9594 6.97552 18.1502 7.16299C18.341 7.35047 18.4925 7.57407 18.5959 7.82073C18.6993 8.06739 18.7526 8.33218 18.7526 8.59965C18.7526 8.86711 18.6993 9.1319 18.5959 9.37856C18.4925 9.62523 18.341 9.84882 18.1502 10.0363C17.9594 10.2238 17.7332 10.3714 17.4848 10.4705C17.2364 10.5696 16.9707 10.6183 16.7033 10.6136L13.02 10.6136L21.8102 19.4039C22.188 19.7816 22.4002 20.294 22.4002 20.8282C22.4002 21.3624 22.188 21.8748 21.8102 22.2525C21.4325 22.6303 20.9201 22.8425 20.3859 22.8425C19.8517 22.8425 19.3393 22.6303 18.9616 22.2525L10.1713 13.4623L10.1713 17.1456C10.176 17.413 10.1273 17.6787 10.0282 17.9271C9.92906 18.1756 9.78145 18.4018 9.59397 18.5925C9.40649 18.7833 9.1829 18.9348 8.93624 19.0382C8.68958 19.1417 8.42479 19.1949 8.15732 19.1949C7.88985 19.1949 7.62506 19.1417 7.3784 19.0382C7.13174 18.9348 6.90814 18.7833 6.72067 18.5925C6.53319 18.4018 6.38558 18.1756 6.28645 17.9271C6.18733 17.6787 6.13867 17.413 6.14332 17.1456L6.14261 6.58493L16.7033 6.58565Z" fill="#EA5A69"/>
<defs>
<clipPath id="clip0_11021_3203">
<rect width="22.8292" height="16.1639" fill="white" transform="translate(0.427734 36.0127) rotate(-45)"/>
</clipPath>
<clipPath id="clip1_11021_3203">
<rect width="22.8292" height="16.1639" fill="white" transform="translate(36.5703 47.4424) rotate(-135)"/>
</clipPath>
</defs>
</svg>
