<svg width="25" height="20" viewBox="0 0 25 20" fill="none" xmlns="http://www.w3.org/2000/svg">
<path d="M6.43809 3.00111C7.35838 3.00111 8.26867 3.37123 8.92887 4.02143L10.4093 5.46189L12.5 7.50253L14.5907 5.46189L16.0711 4.02143C16.7383 3.37216 17.631 3.00648 18.5619 3.00111C19.0521 3.00111 19.7623 3.11115 20.4125 3.63131C20.7304 3.87734 20.9917 4.18894 21.1785 4.54492C21.3653 4.90091 21.4733 5.29294 21.4951 5.69437C21.517 6.0958 21.4521 6.49722 21.305 6.87136C21.1579 7.2455 20.932 7.58359 20.6426 7.86264L20.5725 7.93267L20.5025 8.01269C20.4425 8.08271 14.9108 14.2347 12.5 16.7655C10.0892 14.2247 4.55749 8.07271 4.49748 8.01269L4.43746 7.93267L4.35743 7.86264C4.0705 7.58508 3.84552 7.24998 3.69726 6.87932C3.54899 6.50866 3.4808 6.11084 3.49716 5.71197C3.54822 4.96992 3.8814 4.27557 4.42831 3.77145C4.97521 3.26733 5.69435 2.99169 6.43809 3.00111ZM18.5619 0.000165358C16.85 0.00612748 15.2073 0.676822 13.9805 1.87076L12.5 3.31121L11.0195 1.87076C9.79267 0.676822 8.15 0.00612748 6.43809 0.000165358C5.10767 0.000165358 3.78725 0.420298 2.70691 1.29057C2.05771 1.80306 1.52559 2.44844 1.14623 3.18342C0.766877 3.91841 0.549054 4.72601 0.507372 5.55207C0.46569 6.37813 0.601113 7.20355 0.904557 7.97298C1.208 8.74242 1.67246 9.43808 2.26677 10.0133C2.26677 10.0133 8.55876 17.0255 10.7494 19.2762C11.2196 19.7664 11.8598 20.0065 12.5 20.0065C13.1402 20.0065 13.7804 19.7664 14.2506 19.2762C16.4412 17.0255 22.7332 10.0133 22.7332 10.0133C23.3275 9.43808 23.792 8.74242 24.0954 7.97298C24.3989 7.20355 24.5343 6.37813 24.4926 5.55207C24.4509 4.72601 24.2331 3.91841 23.8538 3.18342C23.4744 2.44844 22.9423 1.80306 22.2931 1.29057C21.234 0.445588 19.9168 -0.00996438 18.5619 0.000165358Z" fill="#EA5A69"/>
</svg>
