<svg width="17" height="16" viewBox="0 0 17 16" fill="none" xmlns="http://www.w3.org/2000/svg">
<g clip-path="url(#clip0_10144_2780)">
<path d="M14.8069 8.71584L8.71953 14.3579C8.53262 14.5289 8.28221 14.6246 8.02153 14.6246C7.76085 14.6246 7.51044 14.5289 7.32353 14.3579L1.2362 8.71584C0.851259 8.35488 0.545825 7.92595 0.337417 7.45364C0.129009 6.98133 0.0217285 6.47495 0.0217285 5.96353C0.0217285 5.45211 0.129009 4.94572 0.337417 4.47341C0.545825 4.00111 0.851259 3.57217 1.2362 3.21121C2.8622 1.69717 5.49953 1.69717 7.12553 3.21121L8.02153 4.05451L8.91753 3.21121C10.5435 1.69717 13.1809 1.69717 14.8069 3.21121C15.1918 3.57217 15.4972 4.00111 15.7056 4.47341C15.9141 4.94572 16.0213 5.45211 16.0213 5.96353C16.0213 6.47495 15.9141 6.98133 15.7056 7.45364C15.4972 7.92595 15.1918 8.35488 14.8069 8.71584Z" fill="#EA5A69"/>
</g>
<defs>
<clipPath id="clip0_10144_2780">
<rect width="16" height="15.0588" fill="white" transform="translate(0.0216064 0.193359)"/>
</clipPath>
</defs>
</svg>
