<svg width="17" height="17" viewBox="0 0 17 17" fill="none" xmlns="http://www.w3.org/2000/svg">
<g clip-path="url(#clip0_8882_726)">
<path d="M4.49978 10.4938H4.50008C5.55682 10.4938 6.41675 9.6339 6.41675 8.57716C6.41675 7.52042 5.55682 6.66049 4.50008 6.66049C3.44334 6.66049 2.58341 7.52042 2.58341 8.57716L2.58341 8.57746C2.58402 9.08552 2.78612 9.57261 3.14538 9.93186C3.50463 10.2911 3.99172 10.4932 4.49978 10.4938ZM8.08695 7.48341L8.14095 7.66049H8.32608H16.2501V9.49382H15.1667H14.9167V9.74382V11.6605H12.7501V9.74382V9.49382H12.5001H8.32608H8.14095L8.08695 9.67091C7.82481 10.5306 7.26264 11.2675 6.50281 11.7475C5.74297 12.2275 4.83601 12.4187 3.94708 12.2862C3.05815 12.1537 2.24638 11.7063 1.65958 11.0255C1.07279 10.3448 0.75 9.47591 0.75 8.57716C0.75 7.6784 1.07279 6.80954 1.65958 6.12879C2.24638 5.44803 3.05815 5.00066 3.94708 4.86814C4.83601 4.73563 5.74297 4.92678 6.50281 5.40679C7.26264 5.88679 7.82481 6.62373 8.08695 7.48341Z" fill="#A5A5A5" stroke="white" stroke-width="0.5"/>
</g>
<defs>
<clipPath id="clip0_8882_726">
<rect width="16" height="16" fill="white" transform="translate(0.5 0.577148)"/>
</clipPath>
</defs>
</svg>
