<svg width="24" height="25" viewBox="0 0 24 25" fill="none" xmlns="http://www.w3.org/2000/svg">
<g clip-path="url(#clip0_10144_2767)">
<path d="M23.539 21.6873L23.57 21.6543C23.7851 21.4379 23.9277 21.16 23.9782 20.8591C24.0287 20.5582 23.9846 20.249 23.852 19.9743L21 13.6143L7.99997 12.1143L21 10.6143L23.853 4.25426C23.9849 3.98069 24.0291 3.67305 23.9795 3.37341C23.9299 3.07377 23.789 2.79676 23.576 2.58026L23.535 2.53826C23.132 2.15026 22.522 1.97826 21.909 2.23826L0.918973 10.7313C0.733973 10.8093 0.575972 10.9153 0.446973 11.0413L0.412972 11.0743C-0.273028 11.7843 -0.104028 13.0683 0.919972 13.4973L21.91 21.9913C22.0977 22.0718 22.2997 22.1136 22.504 22.1143C22.902 22.1143 23.268 21.9503 23.539 21.6873Z" fill="#EA5A69"/>
</g>
<defs>
<clipPath id="clip0_10144_2767">
<rect width="24" height="24" fill="white" transform="matrix(-1 0 0 -1 24 24.1143)"/>
</clipPath>
</defs>
</svg>
