
<svg width="331" height="67" viewBox="0 0 331 67" fill="none" xmlns="http://www.w3.org/2000/svg">
<path fill-rule="evenodd" clip-rule="evenodd" d="M127.46 53.9479C114.782 53.9479 98.6879 50.3699 92.7629 44.8963C49.0405 51.035 40.8428 39.7923 40.0401 38.4794C40.01 38.4229 39.9799 38.3707 39.9498 38.3142C39.2926 36.923 39.3578 35.5361 40.1304 34.3014C42.5135 30.4974 51.4887 29.0236 60.9858 27.4671C66.3137 26.5933 75.2137 25.1325 76.1067 23.6587C76.0666 23.6544 75.901 23.2979 75.0682 22.6457C74.4512 22.1632 74.2003 21.4241 74.416 20.7328C75.7556 16.3984 83.612 13.8116 97.7648 13.0551C98.8785 12.9986 99.8468 13.6594 100.062 14.5811L113.282 14.9593L113.287 14.9028C113.367 13.8507 114.421 13.0725 115.63 13.1203C120.105 13.3725 130.922 14.1855 135.622 16.3071C140.725 17.8244 143.83 20.1068 144.859 23.0892C146.278 27.2237 142.982 30.9017 142.842 31.0582C142.807 31.093 142.771 31.1321 142.736 31.1669C142.696 31.2017 142.355 31.5364 142.4 31.6668C142.721 32.5842 146.379 34.7231 154.842 36.5448C159.302 37.5056 160.862 40.1836 160.431 42.4139C159.804 45.6572 154.988 48.8352 145.927 48.4526C143.755 51.2741 139.285 53.0784 132.863 53.7044C131.167 53.8696 129.351 53.9479 127.46 53.9479Z" fill="#F1685F"/>
<path fill-rule="evenodd" clip-rule="evenodd" d="M329.872 9.9689C326.261 2.74272 307.649 -1.10384 293.419 0.278517C285.182 1.08297 280.986 2.58091 277.284 3.89854C271.124 6.0946 266.266 7.83295 248.461 5.54443C245.268 5.13758 240.636 4.69837 235.465 4.69837C224.116 4.69837 210.13 6.81121 202.886 15.9792C199.702 20.0107 198.754 23.1221 200.083 25.2303C203.925 31.3423 225.585 30.9216 238.314 27.6529C256.631 22.9511 270.956 20.0523 288.534 25.6464C296.459 28.1707 316.055 32.6877 326.856 20.2372C330.289 16.2797 331.301 12.8261 329.872 9.9689Z" fill="#F5852F"/>
</svg>
