<svg width="375" height="107" viewBox="0 0 375 107" fill="none" xmlns="http://www.w3.org/2000/svg">
<path d="M375 0C374.203 12.647 372.674 25.0212 369.449 36.4158C363.913 55.9566 351.934 71.9017 339.354 69.0128C332.608 67.4629 326.397 62.1685 319.506 61.9081C313.426 61.685 310.578 69.8559 306.68 76.9605C303.926 81.9697 300.629 87.3757 296.614 87.0285C292.281 86.6565 289.186 79.6759 287.469 72.8565C285.744 66.037 284.614 58.3992 281.462 53.3032C277.324 46.6202 270.585 46.3846 265.527 50.8483C261.447 54.4564 257.78 61.0774 255.758 68.1448C253.62 75.6338 254.439 84.1395 253.548 92.2361C252.874 98.3612 250.852 104.709 247.367 106.52C242.896 108.838 238.258 102.403 236.598 94.9267C234.946 87.4501 235.337 79.1799 235.04 71.2074C234.548 57.8909 229.352 41.5986 220.004 47.0046C212.612 51.2698 209.873 68.4796 202.445 72.5713C195.786 76.229 189.126 67.5993 184.097 59.292C179.068 50.9722 173.003 41.6606 166.111 43.7188C156.734 46.5334 153.524 67.7481 145.161 75.5346C140.777 79.6139 135.111 79.3411 130.864 74.8279C122.183 65.6154 123.944 44.376 119.523 30.4891C116.994 22.5414 111.443 16.2551 106.508 19.4912C101.842 22.5538 100.102 31.9894 98.3923 40.0239C96.6821 48.0585 93.2328 57.0229 88.2544 56.2914C84.892 55.7954 82.1093 50.7739 78.7324 50.8235C73.3917 50.8978 71.1163 62.6769 71.4569 71.8025C71.7975 80.9158 72.9642 91.4301 69.2974 98.0884C65.2611 105.416 57.5146 102.316 53.9493 94.3067C50.384 86.297 50.0071 75.4602 50.326 65.4171C50.6521 55.3615 51.5144 45.0827 49.9492 35.3867C48.3912 25.6659 43.4853 16.5774 37.6083 17.123C31.5357 17.681 27.3545 27.6249 21.8471 32.039C15.3324 37.259 6.79602 33.5269 2.55679 23.5829C-0.399794 16.6518 -0.189644 8.27012 0.266888 0H375Z" fill="url(#paint0_linear_4782_1441)"/>
<defs>
<linearGradient id="paint0_linear_4782_1441" x1="0" y1="53.5" x2="375" y2="53.5" gradientUnits="userSpaceOnUse">
<stop stop-color="#F0606C"/>
<stop offset="1" stop-color="#F7901E"/>
</linearGradient>
</defs>
</svg>