<svg width="22" height="22" viewBox="0 0 22 22" fill="none" xmlns="http://www.w3.org/2000/svg">
<g clip-path="url(#clip0_4747_717)">
<path d="M2.75016 5.49992H11.9168C12.4031 5.49992 12.8694 5.30676 13.2132 4.96295C13.557 4.61913 13.7502 4.15281 13.7502 3.66658C13.7502 3.18035 13.557 2.71404 13.2132 2.37022C12.8694 2.02641 12.4031 1.83325 11.9168 1.83325L2.75016 1.83325C2.26393 1.83325 1.79762 2.02641 1.4538 2.37022C1.10998 2.71404 0.916828 3.18035 0.916828 3.66658C0.916828 4.15281 1.10998 4.61913 1.4538 4.96295C1.79762 5.30676 2.26393 5.49992 2.75016 5.49992ZM18.3335 6.41658C19.0628 6.41658 19.7623 6.12685 20.278 5.61113C20.7938 5.0954 21.0835 4.39593 21.0835 3.66658C21.0835 2.93724 20.7938 2.23776 20.278 1.72204C19.7623 1.20631 19.0628 0.916584 18.3335 0.916584C17.6042 0.916584 16.9047 1.20631 16.389 1.72204C15.8732 2.23776 15.5835 2.93724 15.5835 3.66658C15.5835 4.39593 15.8732 5.0954 16.389 5.61113C16.9047 6.12685 17.6042 6.41658 18.3335 6.41658ZM2.75016 12.8333H11.9168C12.4031 12.8333 12.8694 12.6401 13.2132 12.2963C13.557 11.9525 13.7502 11.4861 13.7502 10.9999C13.7502 10.5137 13.557 10.0474 13.2132 9.70356C12.8694 9.35974 12.4031 9.16658 11.9168 9.16658H2.75016C2.26393 9.16658 1.79762 9.35974 1.4538 9.70356C1.10998 10.0474 0.916828 10.5137 0.916828 10.9999C0.916828 11.4861 1.10998 11.9525 1.4538 12.2963C1.79762 12.6401 2.26393 12.8333 2.75016 12.8333ZM18.3335 13.7499C19.0628 13.7499 19.7623 13.4602 20.278 12.9445C20.7938 12.4287 21.0835 11.7293 21.0835 10.9999C21.0835 10.2706 20.7938 9.5711 20.278 9.05537C19.7623 8.53965 19.0628 8.24992 18.3335 8.24992C17.6042 8.24992 16.9047 8.53965 16.389 9.05537C15.8732 9.5711 15.5835 10.2706 15.5835 10.9999C15.5835 11.7293 15.8732 12.4287 16.389 12.9445C16.9047 13.4602 17.6042 13.7499 18.3335 13.7499ZM11.9168 16.4999L2.75016 16.4999C2.26393 16.4999 1.79762 16.6931 1.4538 17.0369C1.10998 17.3807 0.916828 17.847 0.916828 18.3333C0.916828 18.8195 1.10998 19.2858 1.4538 19.6296C1.79762 19.9734 2.26393 20.1666 2.75016 20.1666L11.9168 20.1666C12.4031 20.1666 12.8694 19.9734 13.2132 19.6296C13.557 19.2858 13.7502 18.8195 13.7502 18.3333C13.7502 17.847 13.557 17.3807 13.2132 17.0369C12.8694 16.6931 12.4031 16.4999 11.9168 16.4999ZM15.5835 18.3333C15.5835 17.9721 15.6546 17.6145 15.7928 17.2809C15.931 16.9472 16.1336 16.6441 16.389 16.3887C16.6443 16.1333 16.9475 15.9308 17.2811 15.7926C17.6148 15.6544 17.9724 15.5833 18.3335 15.5833C18.6946 15.5833 19.0522 15.6544 19.3859 15.7926C19.7195 15.9308 20.0227 16.1333 20.278 16.3887C20.5334 16.6441 20.736 16.9472 20.8742 17.2809C21.0124 17.6145 21.0835 17.9721 21.0835 18.3333C21.0835 19.0626 20.7938 19.7621 20.278 20.2778C19.7623 20.7935 19.0628 21.0833 18.3335 21.0833C17.6042 21.0833 16.9047 20.7935 16.389 20.2778C15.8732 19.7621 15.5835 19.0626 15.5835 18.3333Z" fill="#262626"/>
</g>
<defs>
<clipPath id="clip0_4747_717">
<rect width="22" height="22" fill="white" transform="matrix(-1 0 0 -1 22 22)"/>
</clipPath>
</defs>
</svg>
