<svg width="22" height="22" viewBox="0 0 22 22" fill="none" xmlns="http://www.w3.org/2000/svg">
<path d="M16.5001 11.4583C16.3195 11.4583 16.1406 11.4226 15.9738 11.3535C15.8069 11.2843 15.6553 11.1829 15.5276 11.0551C15.3999 10.9274 15.2987 10.7757 15.2296 10.6088C15.1605 10.4419 15.125 10.263 15.1251 10.0824C15.1251 9.90179 15.1608 9.72294 15.23 9.55609C15.2991 9.38923 15.4005 9.23764 15.5283 9.10995C15.656 8.98227 15.8077 8.88101 15.9746 8.81194C16.1415 8.74287 16.3204 8.70736 16.501 8.70742C16.8658 8.70754 17.2156 8.85257 17.4735 9.1106C17.7313 9.36864 17.8761 9.71854 17.876 10.0833C17.8759 10.4481 17.7308 10.7979 17.4728 11.0558C17.2148 11.3137 16.8649 11.4585 16.5001 11.4583ZM11.0001 11.4583C10.6353 11.4582 10.2855 11.3132 10.0276 11.0551C9.76976 10.7971 9.62496 10.4472 9.62508 10.0824C9.6252 9.71762 9.77023 9.36782 10.0283 9.10995C10.2863 8.85209 10.6362 8.70729 11.001 8.70742C11.3658 8.70754 11.7156 8.85257 11.9735 9.1106C12.2313 9.36864 12.3761 9.71854 12.376 10.0833C12.3759 10.4481 12.2308 10.7979 11.9728 11.0558C11.7148 11.3137 11.3649 11.4585 11.0001 11.4583ZM5.50008 11.4583C5.13529 11.4582 4.78548 11.3132 4.52762 11.0551C4.26976 10.7971 4.12496 10.4472 4.12508 10.0824C4.1252 9.71762 4.27023 9.36782 4.52827 9.10995C4.7863 8.85209 5.1362 8.70729 5.501 8.70742C5.86579 8.70754 6.2156 8.85257 6.47346 9.1106C6.73132 9.36864 6.87612 9.71854 6.876 10.0833C6.87588 10.4481 6.73085 10.7979 6.47281 11.0558C6.21478 11.3137 5.86488 11.4585 5.50008 11.4583ZM11.0001 0C5.43133 0 0.916748 4.51458 0.916748 10.0833C0.916748 12.5153 1.77841 14.7455 3.21208 16.4872L1.83341 22L6.72475 19.2051C8.06145 19.8372 9.52148 20.1655 11.0001 20.1667C16.5688 20.1667 21.0834 15.6521 21.0834 10.0833C21.0834 4.51458 16.5688 0 11.0001 0Z" fill="#262626"/>
</svg>
