<svg width="22" height="23" viewBox="0 0 22 23" fill="none" xmlns="http://www.w3.org/2000/svg">
<path d="M12.2706 5.68043L16.4836 9.89343L6.50566 19.8713L0.916748 21.2463L2.29266 15.6583L12.2706 5.68043ZM20.2107 1.95327C20.4876 2.22978 20.7072 2.55815 20.857 2.9196C21.0069 3.28105 21.084 3.66849 21.084 4.05977C21.084 4.45104 21.0069 4.83848 20.857 5.19993C20.7072 5.56138 20.4876 5.88975 20.2107 6.16627L18.1042 8.2746L13.8912 4.05977L15.9977 1.95235C16.2743 1.67552 16.6026 1.4559 16.9641 1.30606C17.3255 1.15623 17.713 1.0791 18.1042 1.0791C18.4955 1.0791 18.883 1.15623 19.2444 1.30606C19.6059 1.4559 19.9342 1.67552 20.2107 1.95235V1.95327Z" fill="#EA5A69"/>
</svg>
