<svg width="22" height="22" viewBox="0 0 22 22" fill="none" xmlns="http://www.w3.org/2000/svg">
<path d="M13.3566 17.676C14.7861 16.2465 15.2635 14.1363 14.7822 12.3135L18.849 8.05192L21.6391 7.79698L21.6229 7.77979C21.668 7.78803 21.7145 7.78531 21.7583 7.77185C21.8022 7.75839 21.8422 7.73458 21.875 7.70245C21.9025 7.67517 21.9244 7.64272 21.9394 7.60694C21.9544 7.57117 21.9622 7.53279 21.9622 7.49401C21.9623 7.45522 21.9548 7.41681 21.9399 7.38096C21.9251 7.34512 21.9034 7.31257 21.8759 7.28517L15.02 0.428313C14.9644 0.373046 14.8891 0.342107 14.8107 0.342286C14.7323 0.342465 14.6571 0.373748 14.6018 0.429268C14.5698 0.462343 14.5461 0.502515 14.5327 0.546497C14.5193 0.590478 14.5164 0.637018 14.5244 0.682306L14.5082 0.665119L14.2532 3.45618L9.99075 7.52293C8.16792 7.04073 6.05768 7.51911 4.62825 8.94758L8.26532 12.5847L3.174 17.676C2.44639 18.4036 0.678944 20.4976 0.992138 21.313C1.80663 21.6262 3.9016 19.8578 4.62825 19.1302L9.71957 14.0389L13.3566 17.676Z" fill="#262626"/>
</svg>
