<svg width="19" height="18" viewBox="0 0 19 18" fill="none" xmlns="http://www.w3.org/2000/svg">
<path d="M8.69433 12.75H10.1943V9.75H13.1943V8.25H10.1943V5.25H8.69433V8.25H5.69434V9.75H8.69433V12.75ZM9.44433 16.5C8.40684 16.5 7.43184 16.3062 6.51934 15.9187C5.60684 15.5187 4.81309 14.9812 4.13809 14.3062C3.46309 13.6312 2.92559 12.8375 2.52559 11.925C2.13809 11.0125 1.94434 10.0375 1.94434 9C1.94434 7.9625 2.13809 6.9875 2.52559 6.075C2.92559 5.1625 3.46309 4.36875 4.13809 3.69375C4.81309 3.01875 5.60684 2.4875 6.51934 2.1C7.43184 1.7 8.40684 1.5 9.44433 1.5C10.4818 1.5 11.4568 1.7 12.3693 2.1C13.2818 2.4875 14.0756 3.01875 14.7506 3.69375C15.4256 4.36875 15.9568 5.1625 16.3443 6.075C16.7443 6.9875 16.9443 7.9625 16.9443 9C16.9443 10.0375 16.7443 11.0125 16.3443 11.925C15.9568 12.8375 15.4256 13.6312 14.7506 14.3062C14.0756 14.9812 13.2818 15.5187 12.3693 15.9187C11.4568 16.3062 10.4818 16.5 9.44433 16.5ZM9.44433 15C11.1193 15 12.5381 14.4187 13.7006 13.2562C14.8631 12.0937 15.4443 10.675 15.4443 9C15.4443 7.325 14.8631 5.90625 13.7006 4.74375C12.5381 3.58125 11.1193 3 9.44433 3C7.76934 3 6.35059 3.58125 5.18809 4.74375C4.02559 5.90625 3.44434 7.325 3.44434 9C3.44434 10.675 4.02559 12.0937 5.18809 13.2562C6.35059 14.4187 7.76934 15 9.44433 15Z" fill="white"/>
</svg>
