<svg className='bgRed' width="13" height="12" viewBox="0 0 13 12" fill="none" xmlns="http://www.w3.org/2000/svg">
<g clip-path="url(#clip0_8531_158)">
<path d="M11.5 5H7.5V1C7.5 0.734784 7.39464 0.48043 7.20711 0.292893C7.01957 0.105357 6.76522 0 6.5 0C6.23478 0 5.98043 0.105357 5.79289 0.292893C5.60536 0.48043 5.5 0.734784 5.5 1V5H1.5C1.23478 5 0.98043 5.10536 0.792893 5.29289C0.605357 5.48043 0.5 5.73478 0.5 6C0.5 6.26522 0.605357 6.51957 0.792893 6.70711C0.98043 6.89464 1.23478 7 1.5 7H5.5V11C5.5 11.2652 5.60536 11.5196 5.79289 11.7071C5.98043 11.8946 6.23478 12 6.5 12C6.76522 12 7.01957 11.8946 7.20711 11.7071C7.39464 11.5196 7.5 11.2652 7.5 11V7H11.5C11.7652 7 12.0196 6.89464 12.2071 6.70711C12.3946 6.51957 12.5 6.26522 12.5 6C12.5 5.73478 12.3946 5.48043 12.2071 5.29289C12.0196 5.10536 11.7652 5 11.5 5Z" fill="white"/>
</g>
<defs>
<clipPath id="clip0_8531_158">
<rect width="12" height="12" fill="white" transform="translate(0.5)"/>
</clipPath>
</defs>
</svg>
