<svg width="48" height="48" viewBox="0 0 48 48" fill="none" xmlns="http://www.w3.org/2000/svg">
<rect width="48" height="48" rx="24" fill="#F3F0EE"/>
<path d="M23.9999 24C29.0627 24 33.1666 28.1039 33.1666 33.1667V35H14.8333V33.1667C14.8333 28.1039 18.9372 24 23.9999 24ZM23.9999 23.0833C22.6628 23.0833 21.3804 22.5522 20.4349 21.6067C19.4894 20.6612 18.9583 19.3788 18.9583 18.0417C18.9583 16.7045 19.4894 15.4222 20.4349 14.4767C21.3804 13.5312 22.6628 13 23.9999 13C25.3371 13 26.6194 13.5312 27.5649 14.4767C28.5104 15.4222 29.0416 16.7045 29.0416 18.0417C29.0416 19.3788 28.5104 20.6612 27.5649 21.6067C26.6194 22.5522 25.3371 23.0833 23.9999 23.0833Z" fill="#CDCDCD"/>
</svg>
