<svg width="14" height="13" viewBox="0 0 14 13" fill="none" xmlns="http://www.w3.org/2000/svg">
<g clip-path="url(#clip0_10144_2791)">
<path d="M13.5065 10.7225C13.5065 10.989 13.3873 11.2446 13.1752 11.4331C12.963 11.6216 12.6753 11.7275 12.3753 11.7275C12.0753 11.7275 11.7876 11.6216 11.5755 11.4331C11.3633 11.2446 11.2442 10.989 11.2442 10.7225C11.2412 9.72568 10.7934 8.7706 9.999 8.06669C9.20461 7.36277 8.12844 6.96748 7.00649 6.96748H4.30519L6.07229 8.53248C6.17687 8.62572 6.25975 8.73635 6.3162 8.85804C6.37266 8.97974 6.40158 9.11012 6.40132 9.24175C6.40106 9.37338 6.37162 9.50367 6.31468 9.62519C6.25774 9.74671 6.17442 9.85707 6.06948 9.94998C5.96454 10.0429 5.84002 10.1165 5.70305 10.1667C5.56607 10.2168 5.41932 10.2425 5.27117 10.2423C5.12302 10.2421 4.97637 10.2159 4.83959 10.1653C4.70282 10.1147 4.5786 10.0407 4.47403 9.94748L0 5.98248L4.4684 2.01748C4.6796 1.82918 4.96634 1.72313 5.26554 1.72266C5.56475 1.72219 5.85191 1.82734 6.06385 2.01498C6.2758 2.20262 6.39516 2.45738 6.39569 2.72321C6.39622 2.98905 6.27786 3.24418 6.06667 3.43248L4.34459 4.95748H7.00649C10.5913 4.95748 13.5065 7.54248 13.5065 10.7225Z" fill="#EA5A69"/>
</g>
<defs>
<clipPath id="clip0_10144_2791">
<rect width="13.5065" height="12" fill="white" transform="translate(0 0.722656)"/>
</clipPath>
</defs>
</svg>
