<svg width="16" height="19" viewBox="0 0 16 19" fill="none" xmlns="http://www.w3.org/2000/svg">
<path d="M0.5 2.75635C0.5 2.09331 0.763392 1.45742 1.23223 0.988581C1.70107 0.51974 2.33696 0.256348 3 0.256348H13C13.663 0.256348 14.2989 0.51974 14.7678 0.988581C15.2366 1.45742 15.5 2.09331 15.5 2.75635V17.2813C15.5002 17.5773 15.4217 17.868 15.2724 18.1235C15.1231 18.3791 14.9084 18.5903 14.6504 18.7354C14.3925 18.8805 14.1005 18.9543 13.8046 18.9492C13.5087 18.9441 13.2195 18.8602 12.9667 18.7063L8 15.673L3.03333 18.7063C2.78113 18.8599 2.49267 18.9437 2.19746 18.9491C1.90225 18.9546 1.61089 18.8815 1.35319 18.7374C1.09548 18.5933 0.88069 18.3833 0.730781 18.1289C0.580872 17.8746 0.501229 17.5849 0.5 17.2897V2.75635Z" fill="#262626"/>
</svg>
