<svg width="23" height="22" viewBox="0 0 23 22" fill="none" xmlns="http://www.w3.org/2000/svg">
<path d="M17.9168 9.62492C17.9168 11.166 17.4599 12.6724 16.6037 13.9537C15.7475 15.2351 14.5306 16.2337 13.1069 16.8235C11.6832 17.4132 10.1165 17.5675 8.60509 17.2669C7.09365 16.9662 5.70531 16.2241 4.61563 15.1345C3.52594 14.0448 2.78386 12.6564 2.48321 11.145C2.18257 9.63356 2.33687 8.06692 2.9266 6.64318C3.51634 5.21944 4.51502 4.00254 5.79635 3.14638C7.07768 2.29023 8.58412 1.83325 10.1252 1.83325C12.1916 1.83325 14.1735 2.65416 15.6347 4.11538C17.0959 5.5766 17.9168 7.55844 17.9168 9.62492Z" stroke="#262626" stroke-width="2" stroke-linecap="round" stroke-linejoin="round"/>
<path d="M15.6353 15.135L20.6668 20.1666" stroke="#262626" stroke-width="2" stroke-linecap="round" stroke-linejoin="round"/>
</svg>
