<svg width="21" height="22" viewBox="0 0 21 22" fill="none" xmlns="http://www.w3.org/2000/svg">
<path d="M0 19.6765C0 20.8994 0.995505 21.8906 2.21414 21.8906H18.7859C20.0088 21.8906 21 20.8951 21 19.6765V3.10476C21 1.88184 20.0045 0.890625 18.7859 0.890625H2.21414C0.991214 0.890625 0 1.88613 0 3.10476V19.6765ZM18.7859 20.8393H2.21414C1.57479 20.8393 1.05129 20.3158 1.05129 19.6765V16.9088L5.03331 12.9268L8.43604 16.3295C8.64201 16.5355 8.97241 16.5355 9.17838 16.3295L15.323 10.1849L19.9487 14.8105V19.6765C19.9487 20.3158 19.4252 20.8393 18.7859 20.8393ZM2.21414 1.94191H18.7859C19.4252 1.94191 19.9487 2.46541 19.9487 3.10476V13.3216L15.6921 9.06921C15.4861 8.86325 15.1557 8.86325 14.9497 9.06921L8.80507 15.2139L5.40233 11.8111C5.19636 11.6052 4.86596 11.6052 4.65999 11.8111L1.05129 15.4198V3.10476C1.05129 2.46541 1.57479 1.94191 2.21414 1.94191Z" fill="black"/>
<path d="M6.50921 9.30553C7.9853 9.30553 9.18248 8.10406 9.18248 6.63226C9.18248 5.16046 7.98101 3.95898 6.50921 3.95898C5.03741 3.95898 3.83594 5.16046 3.83594 6.63226C3.83594 8.10406 5.03312 9.30553 6.50921 9.30553ZM6.50921 5.01027C7.40602 5.01027 8.1312 5.73974 8.1312 6.63226C8.1312 7.52478 7.40173 8.25424 6.50921 8.25424C5.61669 8.25424 4.88722 7.52478 4.88722 6.63226C4.88722 5.73974 5.6124 5.01027 6.50921 5.01027Z" fill="black"/>
</svg>
