<svg width="291" height="113" viewBox="0 0 291 113" fill="none" xmlns="http://www.w3.org/2000/svg">
<path fill-rule="evenodd" clip-rule="evenodd" d="M211.544 113C181.053 113 142.345 103.114 128.095 87.9905C22.9378 104.952 3.22166 73.8881 1.29107 70.2603C1.21868 70.1042 1.14628 69.96 1.07388 69.8039C-0.506787 65.9599 -0.349926 62.128 1.50826 58.7165C7.2397 48.2057 28.8261 44.1335 51.6674 39.8331C64.4817 37.4186 85.887 33.3825 88.0348 29.3103C87.9383 29.2983 87.5401 28.3133 85.5371 26.5114C84.053 25.1781 83.4497 23.136 83.9685 21.226C87.1902 9.24972 106.086 2.10238 140.125 0.0122359C142.803 -0.143924 145.132 1.68195 145.651 4.22856L177.445 5.27364L177.457 5.11748C177.65 2.21049 180.184 0.0602853 183.092 0.192421C193.855 0.889136 219.87 3.13544 231.176 8.99746C243.447 13.1898 250.916 19.4962 253.39 27.7367C256.804 39.1604 248.877 49.3229 248.539 49.7553C248.455 49.8514 248.37 49.9595 248.286 50.0556C248.189 50.1517 247.369 51.0767 247.477 51.437C248.25 53.9716 257.046 59.8817 277.401 64.9149C288.128 67.5696 291.881 74.9692 290.843 81.1315C289.335 90.0927 277.751 98.8737 255.96 97.8166C250.735 105.613 239.984 110.598 224.539 112.328C220.461 112.784 216.093 113 211.544 113Z" fill="#F1685F"/>
</svg>