<svg width="352" height="80" viewBox="0 0 352 80" fill="none" xmlns="http://www.w3.org/2000/svg">
<path fill-rule="evenodd" clip-rule="evenodd" d="M350.312 26.5834C340.609 7.31382 290.599 -2.94354 252.363 0.742701C230.228 2.88787 218.953 6.88232 209.007 10.396C192.455 16.252 179.4 20.8876 131.56 14.7849C122.979 13.7 110.534 12.5288 96.6386 12.5288C66.1423 12.5288 28.5642 18.163 9.09875 42.6105C0.542218 53.361 -2.00524 61.6581 1.56608 67.2799C11.89 83.5783 70.0914 82.4564 104.293 73.7401C153.512 61.2019 192.004 53.4719 239.235 68.3895C260.529 75.1209 313.185 87.1659 342.206 53.9651C351.433 43.4118 354.151 34.2024 350.312 26.5834Z" fill="#F5852F"/>
</svg>
