<svg width="1440" height="240" viewBox="0 0 1440 240" fill="none" xmlns="http://www.w3.org/2000/svg">
<path d="M1440 0C1436.94 28.367 1431.07 56.1222 1418.68 81.6804C1397.43 125.51 1351.43 161.275 1303.12 154.795C1277.21 151.319 1253.37 139.443 1226.9 138.859C1203.56 138.359 1192.62 156.686 1177.65 172.622C1167.08 183.857 1154.41 195.983 1139 195.204C1122.36 194.37 1110.48 178.712 1103.88 163.416C1097.26 148.12 1092.92 130.989 1080.81 119.559C1064.92 104.569 1039.04 104.04 1019.62 114.052C1003.96 122.145 989.875 136.996 982.111 152.848C973.903 169.646 977.047 188.724 973.624 206.885C971.036 220.623 963.273 234.862 949.888 238.923C932.719 244.123 914.91 229.69 908.538 212.92C902.193 196.15 903.696 177.6 902.555 159.718C900.663 129.849 880.711 93.3053 844.814 105.431C816.431 114.998 805.913 153.599 777.39 162.777C751.818 170.981 726.245 151.625 706.933 132.991C687.621 114.33 664.33 93.4443 637.867 98.0609C601.859 104.374 589.532 151.958 557.42 169.423C540.585 178.573 518.824 177.961 502.518 167.838C469.182 147.175 475.943 99.5349 458.969 68.3868C449.258 50.5601 427.942 36.46 408.992 43.7186C391.072 50.5879 384.394 71.7519 377.826 89.7733C371.259 107.795 358.014 127.902 338.897 126.261C325.985 125.149 315.3 113.885 302.333 113.997C281.824 114.163 273.087 140.584 274.395 161.052C275.702 181.493 280.182 205.077 266.102 220.011C250.603 236.448 220.856 229.495 207.165 211.529C193.474 193.563 192.027 169.257 193.252 146.73C194.504 124.175 197.815 101.12 191.805 79.3721C185.822 57.5684 166.983 37.1831 144.416 38.4067C121.097 39.6582 105.041 61.9625 83.8928 71.8631C58.8766 83.5715 26.0967 75.2004 9.81809 52.8962C-1.53521 37.3499 -0.728234 18.5498 1.02485 0H1440Z" fill="url(#paint0_linear_4696_628)"/>
<defs>
<linearGradient id="paint0_linear_4696_628" x1="0" y1="120" x2="1440" y2="120" gradientUnits="userSpaceOnUse">
<stop stop-color="#F0606C"/>
<stop offset="1" stop-color="#F7901E"/>
</linearGradient>
</defs>
</svg>
